<svg width="42" height="51" viewBox="0 0 42 51" fill="none" xmlns="http://www.w3.org/2000/svg">
<path d="M14.9322 10.7499C15.2451 10.7499 15.5453 10.6256 15.7666 10.4043C15.9878 10.1831 16.1122 9.88293 16.1122 9.56998C16.1122 9.25704 15.9878 8.95691 15.7666 8.73562C15.5453 8.51434 15.2451 8.39002 14.9322 8.39002H14.9112C14.7619 8.38992 14.6141 8.42064 14.4772 8.48025C14.3403 8.53986 14.2171 8.62708 14.1155 8.73645C13.9011 8.96102 13.7815 9.25954 13.7815 9.56998C13.7815 9.88043 13.9011 10.1789 14.1155 10.4035C14.3149 10.6177 14.5984 10.752 14.9133 10.752H14.9364H14.9343L14.9322 10.7499ZM27.7123 10.7499H27.7333C28.0483 10.7499 28.3317 10.6156 28.5291 10.4035C28.7434 10.1789 28.863 9.88043 28.863 9.56998C28.863 9.25954 28.7434 8.96102 28.5291 8.73645C28.4273 8.62653 28.3038 8.53884 28.1666 8.47886C28.0293 8.41889 27.8811 8.38793 27.7312 8.38792H27.7081H27.7102C27.3973 8.38792 27.0972 8.51224 26.8759 8.73352C26.6546 8.95481 26.5303 9.25494 26.5303 9.56788C26.5303 9.88083 26.6546 10.181 26.8759 10.4022C27.0972 10.6235 27.3973 10.7478 27.7102 10.7478L27.7123 10.7499ZM3.12415 16.3222C4.82691 16.3306 6.20634 17.708 6.21264 19.4107V32.4911C6.21264 33.3309 5.8704 34.0931 5.31822 34.6432C5.04218 34.9311 4.71066 35.1601 4.34366 35.3164C3.97667 35.4726 3.58182 35.5529 3.18294 35.5523H3.11786H3.12206H3.10526C2.28224 35.5523 1.49294 35.2253 0.910979 34.6434C0.32902 34.0614 0.00207901 33.2721 0.00207901 32.4491V19.4107V19.3666C0.00207901 18.5268 0.350609 17.7688 0.911197 17.2272C1.45709 16.6687 2.21924 16.3222 3.06327 16.3222H3.12415H3.12206H3.12415ZM35.2225 16.8975V37.127C35.2225 38.0277 34.8509 38.8444 34.2525 39.4281C33.9563 39.7353 33.601 39.9795 33.2082 40.1462C32.8153 40.3128 32.3928 40.3985 31.9661 40.3981H31.9178H31.9199H29.6482V47.2721C29.6482 48.0996 29.3194 48.8932 28.7343 49.4783C28.1492 50.0634 27.3556 50.3921 26.5282 50.3921C25.7007 50.3921 24.9071 50.0634 24.322 49.4783C23.7369 48.8932 23.4082 48.0996 23.4082 47.2721V40.3981H19.23V47.2889C19.23 49.0022 17.8401 50.3921 16.1269 50.3921H16.066C15.2261 50.3921 14.4682 50.0436 13.9265 49.483C13.6386 49.203 13.4098 48.8681 13.2536 48.4981C13.0975 48.128 13.0171 47.7305 13.0174 47.3288V47.27V47.2721L12.988 40.3981H10.7288C8.9022 40.3981 7.4199 38.9158 7.4199 37.0892V37.0661V37.0682V16.8996L35.2225 16.8975ZM28.1973 4.63597C30.285 5.69351 32.0598 7.27865 33.3455 9.23405L33.377 9.28444C34.5927 11.1027 35.3149 13.3408 35.3149 15.7448V15.812V15.8078H7.30232V15.7427C7.30232 13.3366 8.02667 11.1006 9.26753 9.23825L9.24023 9.28024C10.5173 7.31985 12.2867 5.72921 14.3716 4.66746L14.4472 4.63177L12.2972 0.663564C12.2608 0.616239 12.2354 0.561336 12.223 0.502905C12.2107 0.444475 12.2116 0.38401 12.2257 0.325971C12.2398 0.267932 12.2667 0.213802 12.3046 0.167575C12.3424 0.121348 12.3901 0.0842043 12.4442 0.0588847H12.4463C12.4968 0.026722 12.5537 0.00574662 12.613 -0.00263283C12.6723 -0.0110123 12.7327 -0.00660182 12.7902 0.0103024C12.8477 0.0272066 12.9009 0.0562132 12.9462 0.0953741C12.9916 0.134535 13.028 0.182944 13.0531 0.237349L13.0552 0.239449L15.2387 4.23705C17.0318 3.43291 19.123 2.9647 21.3254 2.9647C23.5279 2.9647 25.6191 3.43291 27.5087 4.27484L27.4121 4.23705L29.5957 0.239449C29.6205 0.184564 29.6569 0.135668 29.7023 0.0960781C29.7477 0.0564886 29.8011 0.0271333 29.8588 0.0100052C29.9166 -0.00712294 29.9774 -0.0116228 30.037 -0.00318881C30.0967 0.00524515 30.1538 0.0264154 30.2045 0.0588847H30.2024C30.2572 0.0837317 30.3056 0.12064 30.3441 0.166849C30.3826 0.213059 30.4102 0.267373 30.4247 0.325729C30.4393 0.384085 30.4404 0.444974 30.4281 0.50384C30.4158 0.562706 30.3903 0.618026 30.3536 0.665663L28.1973 4.63597ZM42.6424 19.417V32.4554C42.6424 34.1687 41.2525 35.5586 39.5393 35.5586H39.4784C38.6385 35.5586 37.8806 35.2101 37.3389 34.6495C37.051 34.3695 36.8222 34.0345 36.666 33.6645C36.5099 33.2945 36.4296 32.8969 36.4298 32.4953V32.4365V32.4386V19.417V19.3561C36.4298 18.5184 36.7783 17.7604 37.3389 17.223C37.6174 16.9393 37.9497 16.7141 38.3164 16.5605C38.683 16.4069 39.0767 16.3281 39.4742 16.3285H39.5246H39.5225H39.5813C40.4211 16.3285 41.1832 16.6708 41.7333 17.223C42.2939 17.7625 42.6424 18.5184 42.6424 19.3582V19.4149V19.4128V19.417Z" fill="#A4C2FF"/>
</svg>
