<svg width="44" height="50" viewBox="0 0 44 50" fill="none" xmlns="http://www.w3.org/2000/svg">
<path d="M43.0269 36.6315C41.8769 39.1777 41.3269 40.3161 39.85 42.5661C37.7865 45.7084 34.8731 49.6296 31.2712 49.6565C28.0673 49.6834 27.2404 47.5661 22.8923 47.6007C18.5442 47.6219 17.6385 49.695 14.4308 49.6623C10.8288 49.6296 8.07115 46.0969 6.00577 42.9604C0.230767 34.1623 -0.378849 23.8507 3.19038 18.3642C5.71538 14.4738 9.71154 12.1892 13.4635 12.1892C17.2846 12.1892 19.6865 14.2892 22.8462 14.2892C25.9115 14.2892 27.7788 12.1834 32.1981 12.1834C35.5404 12.1834 39.075 14.0046 41.6 17.1469C33.3385 21.6738 34.6808 33.4738 43.0269 36.6315ZM28.8442 8.67189C30.4519 6.60843 31.6712 3.69689 31.2288 0.727661C28.6058 0.906507 25.5385 2.58151 23.7462 4.75074C22.1231 6.72574 20.7769 9.66035 21.3019 12.4988C24.1635 12.5911 27.125 10.8854 28.8442 8.67189Z" fill="#EF3959"/>
</svg>
