<svg width="50" height="51" viewBox="0 0 50 51" fill="none" xmlns="http://www.w3.org/2000/svg">
<path d="M25 0.194947C17.1042 0.194947 10.0646 3.85536 5.48335 9.57203L13.7188 23.8387C14.05 21.0795 15.3808 18.5374 17.4596 16.6932C19.5384 14.8489 22.221 13.8304 25 13.8304H47.2729C45.1779 9.72543 41.989 6.27949 38.0584 3.87321C34.1279 1.46693 29.6087 0.193968 25 0.194947ZM4.02293 11.5908C1.3902 15.639 -0.00759597 20.3659 1.56628e-05 25.1949C1.56628e-05 37.7199 9.20835 48.0929 21.2271 49.9116L29.4625 35.647C26.9078 36.7395 24.0411 36.8573 21.4053 35.9781C18.7696 35.0989 16.5477 33.2836 15.1604 30.8762L4.02293 11.5908ZM31.8188 16.1033C34.0439 17.7681 35.5806 20.1917 36.1374 22.9144C36.6942 25.637 36.2324 28.4693 34.8396 30.8741L34.8438 30.8762H34.8396L23.7063 50.1616C24.1354 50.1824 24.5667 50.1949 25 50.1949C38.8063 50.1949 50 39.0012 50 25.1949C50 21.9866 49.3958 18.922 48.2958 16.1033H31.8188ZM25 34.2866C22.5888 34.2866 20.2763 33.3287 18.5712 31.6237C16.8662 29.9187 15.9083 27.6062 15.9083 25.1949C15.9083 22.7837 16.8662 20.4712 18.5712 18.7662C20.2763 17.0611 22.5888 16.1033 25 16.1033C27.4113 16.1033 29.7238 17.0611 31.4288 18.7662C33.1338 20.4712 34.0917 22.7837 34.0917 25.1949C34.0917 27.6062 33.1338 29.9187 31.4288 31.6237C29.7238 33.3287 27.4113 34.2866 25 34.2866Z" fill="#4A86FF"/>
</svg>
