<svg width="50" height="26" viewBox="0 0 50 26" fill="none" xmlns="http://www.w3.org/2000/svg">
<path d="M2.29167 0.799072C1.0125 0.799072 3.30853e-08 1.79907 3.30853e-08 3.04907C-5.12425e-05 3.34809 0.0594981 3.64411 0.175168 3.91984C0.290838 4.19558 0.460307 4.44549 0.673672 4.65498C0.887037 4.86446 1.14002 5.02932 1.41783 5.13991C1.69564 5.2505 1.9927 5.30461 2.29167 5.29907C3.58333 5.29907 4.60417 4.29907 4.60417 3.04907C4.60417 1.79907 3.58333 0.799072 2.29167 0.799072ZM18.1458 0.840739C11.1458 0.840739 6.77083 5.61157 6.77083 13.1949C6.77083 20.8407 11.1458 25.5907 18.1458 25.5907C25.1042 25.5907 29.5 20.8407 29.5 13.1949C29.5 5.61157 25.1042 0.840739 18.1458 0.840739ZM40.7292 0.840739C35.5208 0.840739 31.8125 3.71574 31.8125 7.98657C31.8125 11.3824 33.9167 13.5074 38.3333 14.5282L41.4375 15.2782C44.4583 15.9657 45.6875 16.9657 45.6875 18.6949C45.6875 20.6949 43.6667 22.1116 40.7917 22.1116C37.8542 22.1116 35.6458 20.6741 35.4167 18.4657H31.25C31.4167 22.8824 35.0417 25.5907 40.5417 25.5907C46.3542 25.5907 50 22.7366 50 18.1949C50 14.6324 47.9167 12.6116 43.0833 11.5074L40.3125 10.8824C37.375 10.1741 36.1667 9.23657 36.1667 7.65324C36.1667 5.65324 38 4.3199 40.7083 4.3199C43.4375 4.3199 45.3125 5.67407 45.5208 7.90324H49.6042C49.5 3.69491 46.0208 0.840739 40.7292 0.840739ZM18.1458 4.48657C22.3958 4.48657 25.125 7.8824 25.125 13.1949C25.125 18.5491 22.3958 21.9449 18.1458 21.9449C13.8542 21.9449 11.1458 18.5491 11.1458 13.1949C11.1458 7.8824 13.8542 4.48657 18.1458 4.48657ZM0.23125 7.59074V25.1949H4.375V7.59074H0.229167H0.23125Z" fill="#0D224E"/>
</svg>
