<svg width="36" height="43" viewBox="0 0 36 43" fill="none" xmlns="http://www.w3.org/2000/svg">
<path d="M34.0417 32.8616C33.8333 32.445 33.625 32.0283 33.625 31.6116C33.625 30.7783 33.2083 30.1533 32.5833 29.5283C32.375 29.32 31.9583 29.1116 31.75 29.1116C33 25.3616 31.125 21.6116 29.0417 18.9033C27.375 16.4033 24.875 14.5283 25.0833 11.195C25.0833 7.23662 25.5 -0.055044 18.2083 0.569956C10.7083 0.986623 12.7917 8.69496 12.5833 11.4033C12.5833 13.695 11.5417 15.9866 9.875 17.8616C9.45833 18.2783 9.04167 18.9033 8.83333 19.32C6.75 21.82 5.70833 25.1533 5.70833 28.2783C5.29167 28.695 4.875 29.1116 4.66667 29.5283C4.45833 29.7366 4.25 29.945 4.25 30.1533C4.04167 30.3616 3.625 30.57 3.20833 30.7783C2.375 30.9866 1.75 31.4033 1.33333 32.2366C1.125 32.8616 0.916667 33.695 1.125 34.5283C1.33333 34.945 1.33333 35.3616 1.125 35.9866C0.708333 36.82 0.708333 37.8616 1.125 38.9033C1.75 39.7366 2.79167 39.945 4.25 40.1533C5.29167 40.1533 6.54167 40.57 7.58333 40.9866C8.625 41.6116 9.875 42.0283 11.125 42.0283C11.75 42.0283 12.5833 41.8199 13.2083 41.6116C13.8333 41.1949 14.25 40.7783 14.4583 40.1533C15.2917 40.1533 16.5417 39.7366 18 39.7366C19.25 39.7366 20.5 40.1533 22.1667 39.945C22.1667 40.1533 22.1667 40.3616 22.375 40.5699C22.7917 41.6116 23.8333 42.4449 25.0833 42.6533H25.5C27.1667 42.4449 28.8333 41.6116 29.875 40.3616C30.7083 39.5283 31.75 38.9033 32.7917 38.4866C34.0417 37.8616 34.875 37.445 35.0833 36.4033C35.2917 34.945 34.875 34.1116 34.0417 32.8616ZM19.6667 6.19496C20.9167 6.40329 21.9583 7.44495 21.75 8.69495C21.75 9.31995 21.5417 9.94495 21.125 10.57H20.9167C20.5 10.3616 20.2917 10.3616 20.0833 10.1533C20.2917 9.94495 20.2917 9.52829 20.5 9.11162C20.5 8.27829 20.0833 7.65329 19.6667 7.65329C19.0417 7.65329 18.625 8.27829 18.625 9.11162V9.31996C18.4167 9.11162 18 9.11162 17.7917 8.90329V8.69495C17.5833 7.65329 18.4167 6.40329 19.6667 6.19496ZM19.0417 10.3616C19.25 10.57 19.6667 10.7783 19.875 10.7783C20.0833 10.7783 20.5 10.9866 20.7083 11.195C21.125 11.4033 21.5417 11.6116 21.5417 12.2366C21.5417 12.8616 20.9167 13.4866 19.6667 13.9033C19.25 14.1116 19.0417 14.1116 18.8333 14.32C18.2083 14.7366 17.5833 14.945 16.75 14.945C16.125 14.945 15.5 14.5283 15.0833 14.1116C14.875 13.9033 14.6667 13.695 14.25 13.4866C14.0417 13.2783 13.625 12.8616 13.4167 12.2366C13.4167 12.0283 13.625 11.82 13.8333 11.6116C14.4583 11.195 14.6667 10.9866 14.875 10.7783L15.0833 10.57C15.5 9.94495 16.3333 9.52829 17.1667 9.52829C17.7917 9.73662 18.4167 9.94496 19.0417 10.3616ZM14.6667 6.61162C15.5 6.61162 16.125 7.44496 16.3333 8.90329V9.31996C16.125 9.31996 15.7083 9.52829 15.5 9.73662V9.31996C15.5 8.69496 15.0833 8.06996 14.6667 8.27829C14.25 8.27829 14.0417 8.90329 14.0417 9.52829C14.0417 9.94495 14.25 10.1533 14.4583 10.3616C14.4583 10.3616 14.25 10.57 14.0417 10.57C13.625 10.1533 13.2083 9.52829 13.2083 8.90329C13.2083 7.65329 13.8333 6.61162 14.6667 6.61162ZM12.5833 40.1533C11.125 40.7783 9.25 40.57 8 39.7366C6.75 39.1116 5.70833 38.9033 4.25 38.9033C3.20833 38.695 2.16667 38.695 1.95833 38.2783C1.75 37.8616 1.75 37.2366 2.16667 36.195C2.375 35.57 2.375 34.945 2.16667 34.32C1.95833 33.695 1.95833 33.2783 2.16667 32.6533C2.375 32.0283 2.79167 31.82 3.41667 31.6116C4.04167 31.4033 4.45833 31.195 4.875 30.7783C5.08333 30.57 5.29167 30.3616 5.5 29.945C6.125 29.1116 6.54167 28.695 7.16667 28.695C8.41667 28.9033 9.45833 30.7783 10.2917 32.6533C10.7083 33.2783 11.125 34.1116 11.75 34.7366C12.5833 35.7783 13.625 37.2366 13.625 38.07C13.625 39.1116 13.2083 39.7366 12.5833 40.1533ZM22.7917 35.57C22.7917 35.7783 22.7917 35.7783 22.5833 35.9866C20.0833 37.8616 16.75 38.07 14.0417 36.6116L12.7917 34.7366C14.6667 34.5283 14.25 32.0283 10.2917 29.5283C6.125 26.82 9.04167 21.82 10.5 19.5283C10.7083 19.32 10.7083 19.5283 9.875 21.195C9.25 22.445 8 25.57 9.66667 27.8616C9.66667 26.195 10.0833 24.5283 10.7083 22.8616C12.1667 20.1533 13.2083 17.0283 13.8333 13.9033C14.0417 14.1116 14.0417 14.1116 14.25 14.1116C14.4583 14.32 14.6667 14.5283 14.875 14.5283C15.2917 15.1533 16.125 15.3616 16.75 15.3616H16.9583C17.7917 15.3616 18.625 15.1533 19.25 14.5283C19.4583 14.32 19.6667 14.1116 20.0833 14.1116C20.7083 13.9033 21.3333 13.4866 21.9583 12.8616C22.7917 15.57 23.625 18.07 24.875 20.3616C25.7083 22.0283 26.3333 23.695 26.75 25.57C27.375 25.57 28.2083 25.7783 28.8333 26.195C30.5 27.0283 31.125 27.6533 30.9167 28.695H30.5C30.5 28.07 30.0833 27.445 28.625 26.82C27.1667 26.195 25.9167 26.195 25.5 27.6533C25.2917 27.6533 25.0833 27.8616 24.875 27.8616C23.2083 28.695 23.2083 30.9866 23 33.2783C23.2083 34.1116 23 34.7366 22.7917 35.57ZM32.375 36.82C31.125 37.2366 30.0833 38.07 29.25 39.1116C28.4167 40.3616 26.9583 41.195 25.2917 40.9866C24.4583 40.9866 23.625 40.3616 23.4167 39.5283C23.2083 38.2783 23.2083 37.0283 23.8333 35.7783C24.0417 34.945 24.25 34.32 24.4583 33.4866C24.6667 30.9866 24.6667 29.5283 25.7083 28.9033C25.7083 29.945 26.3333 30.57 27.1667 30.9866C28.2083 30.9866 29.25 30.7783 30.0833 29.945H30.5C31.125 29.945 31.5417 29.945 31.9583 30.3616C32.375 30.7783 32.5833 31.4033 32.5833 31.82C32.5833 32.445 33 33.07 33.2083 33.695C34.25 34.7366 34.25 35.3616 34.25 35.57C34.0417 35.9866 33.2083 36.4033 32.375 36.82ZM13.625 11.82C13.4167 11.82 13.4167 11.82 13.4167 12.0283C13.4167 12.0283 13.4167 12.2366 13.625 12.2366C13.8333 12.2366 13.8333 12.445 13.8333 12.445C14.4583 13.2783 15.5 13.695 16.75 13.9033C17.7917 13.695 18.8333 13.4866 19.875 12.6533L21.125 12.0283C21.3333 12.0283 21.3333 11.82 21.3333 11.82C21.3333 11.6116 21.3333 11.6116 21.125 11.6116C20.7083 11.82 20.0833 12.0283 19.6667 12.2366C18.8333 12.8616 17.7917 13.2783 16.75 13.2783C15.7083 13.2783 14.875 12.6533 14.25 12.0283C14.0417 12.0283 13.8333 11.82 13.625 11.82Z" fill="#0D224E"/>
</svg>
