<svg width="194" height="194" viewBox="0 0 194 194" fill="none" xmlns="http://www.w3.org/2000/svg">
<path d="M177.169 101.75L176.921 102.999L184.442 106.784L184.426 106.862L176.03 107.485L175.782 108.733L185.226 113.448L185.47 112.219L177.751 108.516L177.771 108.419L186.327 107.909L186.598 106.543L178.887 102.801L178.906 102.704L187.454 102.233L187.699 101.004L177.169 101.75Z" fill="#0D224E"/>
<path d="M175.616 112.347L178.05 114.202L176.794 118.122L173.735 118.217L173.341 119.448L184.178 118.995L184.566 117.783L176.011 111.116L175.616 112.347ZM178.973 114.905L182.85 117.859L182.826 117.935L177.954 118.086L178.973 114.905Z" fill="#0D224E"/>
<path d="M181.874 124.181L180.583 127.111L172.267 123.446L171.769 124.574L180.086 128.239L178.795 131.169L179.795 131.61L182.875 124.622L181.874 124.181Z" fill="#0D224E"/>
<path d="M172.449 139.39C174.442 140.119 176.35 139.301 177.385 137.534C178.702 135.286 177.924 132.641 175.144 131.012C172.364 129.384 169.676 129.999 168.359 132.247C167.324 134.014 167.544 136.079 169.154 137.46L169.778 136.396C168.71 135.425 168.671 133.996 169.355 132.83C170.289 131.234 172.259 130.705 174.541 132.042C176.823 133.379 177.325 135.355 176.39 136.951C175.706 138.118 174.441 138.782 173.072 138.326L172.449 139.39Z" fill="#0D224E"/>
<path d="M166.565 136.967L165.814 137.945L169.428 140.717L166.123 145.025L162.51 142.253L161.759 143.231L169.837 149.429L170.588 148.45L166.991 145.69L170.295 141.383L173.893 144.143L174.643 143.165L166.565 136.967Z" fill="#0D224E"/>
<path d="M158.343 148.717L157.431 149.547L160.496 152.915L156.48 156.568L153.415 153.2L152.503 154.03L159.355 161.561L160.267 160.731L157.216 157.378L161.232 153.724L164.283 157.078L165.195 156.248L158.343 148.717Z" fill="#0D224E"/>
<path d="M147.285 165.125C149.142 167.758 151.844 168.311 153.973 166.809C156.102 165.308 156.488 162.577 154.631 159.945C152.774 157.312 150.073 156.76 147.944 158.261C145.815 159.763 145.429 162.493 147.285 165.125ZM148.261 164.438C146.736 162.276 147.097 160.27 148.609 159.204C150.12 158.138 152.131 158.471 153.656 160.632C155.18 162.794 154.819 164.801 153.308 165.866C151.797 166.932 149.785 166.599 148.261 164.438Z" fill="#0D224E"/>
<path d="M142.292 163.275L141.157 163.852L142.835 172.102L142.764 172.138L137.081 165.927L135.947 166.504L138.084 176.841L139.201 176.273L137.336 167.917L137.424 167.872L143.118 174.279L144.358 173.648L142.528 165.274L142.617 165.229L148.275 171.654L149.391 171.086L142.292 163.275Z" fill="#0D224E"/>
<path d="M130.946 180.185L132.097 179.743L128.449 170.238L127.298 170.68L130.946 180.185Z" fill="#0D224E"/>
<path d="M128.361 180.5L125.267 181.326L122.923 172.545L121.732 172.863L124.076 181.644L120.983 182.47L121.265 183.527L128.643 181.557L128.361 180.5Z" fill="#0D224E"/>
<path d="M112.304 175.936L111.034 176.014L109.291 184.251L109.212 184.256L106.469 176.296L105.198 176.375L103.048 186.709L104.298 186.632L105.91 178.224L106.01 178.218L108.685 186.361L110.074 186.275L111.726 177.864L111.825 177.858L114.461 186.004L115.711 185.926L112.304 175.936Z" fill="#0D224E"/>
<path d="M92.9108 181.789C92.6996 185.003 94.4531 187.131 97.0526 187.302C99.6522 187.473 101.669 185.592 101.88 182.378C102.091 179.163 100.338 177.035 97.7382 176.864C95.1387 176.694 93.1219 178.574 92.9108 181.789ZM94.1014 181.867C94.2747 179.228 95.8172 177.894 97.6626 178.015C99.5081 178.136 100.863 179.66 100.689 182.3C100.516 184.939 98.9737 186.272 97.1282 186.151C95.2828 186.03 93.928 184.506 94.1014 181.867Z" fill="#0D224E"/>
<path d="M91.4403 177.05L90.2249 176.842L89.5546 180.762L87.3592 180.387C87.271 180.372 87.1877 180.358 87.1035 180.348L85.6577 176.061L84.2464 175.82L85.8064 180.353C84.4528 180.571 83.6765 181.512 83.4486 182.845C83.1453 184.619 83.9809 186.104 86.3331 186.506L89.7242 187.086L91.4403 177.05ZM89.3669 181.86L88.6933 185.8L86.5567 185.435C84.9297 185.156 84.4382 184.255 84.6443 183.05C84.8504 181.844 85.6034 181.216 87.2107 181.491L89.3669 181.86Z" fill="#0D224E"/>
<path d="M83.1491 176.121L81.9628 175.785L81.0632 178.961L79.4485 179.992L77.3325 174.473L75.8975 174.067L78.4883 180.608L73.1227 183.863L74.6725 184.302L80.4498 180.689L80.5646 180.721L79.1881 185.581L80.3744 185.917L83.1491 176.121Z" fill="#0D224E"/>
<path d="M66.9717 179.314L65.8626 178.874C65.3469 180.322 66.2404 181.912 68.0704 182.638C69.8819 183.357 71.7232 182.868 72.3539 181.278C72.86 180.003 72.2364 178.878 70.9263 177.866L69.8938 177.071C69.0057 176.398 68.2577 175.695 68.6318 174.752C69.0425 173.717 70.312 173.429 71.6244 173.95C72.752 174.397 73.5521 175.292 73.2192 176.401L74.4022 176.87C74.9073 175.274 74.0684 173.721 72.0351 172.915C69.8539 172.049 68.1387 172.759 67.53 174.294C66.826 176.068 68.2807 177.309 69.1577 177.956L70.0163 178.596C70.6453 179.06 71.6262 179.877 71.2228 180.893C70.8635 181.799 69.7677 182.135 68.5107 181.636C67.3647 181.181 66.7122 180.291 66.9717 179.314Z" fill="#0D224E"/>
<path d="M56.8945 171.879L60.7709 174.074L61.3098 173.122L57.4334 170.927L56.8945 171.879Z" fill="#0D224E"/>
<path d="M52.4616 164.362L51.4986 163.53L44.4931 168.199L44.4329 168.147L48.0381 160.539L47.0751 159.707L38.311 165.59L39.2589 166.409L46.2912 161.526L46.3664 161.591L42.584 169.283L43.6372 170.193L50.6996 165.336L50.7749 165.401L46.9624 173.067L47.9103 173.886L52.4616 164.362Z" fill="#0D224E"/>
<path d="M43.9878 157.722L41.1743 158.926L38.3822 155.901L39.8063 153.193L38.9295 152.243L33.9838 161.896L34.8471 162.831L44.8646 158.672L43.9878 157.722ZM40.1076 159.383L35.6261 161.3L35.5721 161.242L37.8415 156.928L40.1076 159.383Z" fill="#0D224E"/>
<path d="M30.5951 157.317L28.6834 154.749L35.9738 149.323L35.2376 148.333L27.9473 153.76L26.0356 151.191L25.1582 151.844L29.7177 157.97L30.5951 157.317Z" fill="#0D224E"/>
<path d="M22.0367 141.663C20.4209 143.038 20.1938 145.102 21.2226 146.873C22.5311 149.126 25.2167 149.75 28.0025 148.132C30.7882 146.514 31.5761 143.872 30.2677 141.619C29.2389 139.848 27.3337 139.023 25.3384 139.745L25.9576 140.811C27.3284 140.36 28.5911 141.029 29.2703 142.198C30.1992 143.798 29.6902 145.772 27.4032 147.101C25.1161 148.429 23.1489 147.893 22.22 146.294C21.5407 145.124 21.5849 143.696 22.656 142.729L22.0367 141.663Z" fill="#0D224E"/>
<path d="M27.0365 137.76L26.5562 136.624L22.362 138.398L20.2471 133.398L24.4414 131.624L23.9611 130.489L14.5836 134.455L15.0639 135.59L19.2398 133.824L21.3547 138.824L17.1787 140.591L17.659 141.726L27.0365 137.76Z" fill="#0D224E"/>
<path d="M20.9253 124.973L20.6528 123.771L16.2114 124.777L15.0117 119.482L19.4531 118.476L19.1806 117.274L9.25054 119.524L9.523 120.726L13.945 119.724L15.1447 125.019L10.7227 126.021L10.9952 127.223L20.9253 124.973Z" fill="#0D224E"/>
<path d="M12.097 107.212C8.89035 107.522 7.07299 109.595 7.32373 112.188C7.57447 114.781 9.7555 116.469 12.9621 116.158C16.1688 115.848 17.9861 113.775 17.7354 111.182C17.4847 108.589 15.3036 106.901 12.097 107.212ZM12.2118 108.399C14.8444 108.145 16.4093 109.452 16.5873 111.293C16.7653 113.133 15.4799 114.716 12.8473 114.971C10.2147 115.225 8.64979 113.918 8.47178 112.077C8.29378 110.237 9.57922 108.654 12.2118 108.399Z" fill="#0D224E"/>
<path d="M16.1344 103.576L16.1983 102.305L8.2075 99.654L8.21149 99.5746L16.4276 97.7371L16.4914 96.466L6.46202 93.1748L6.3992 94.4261L14.5747 96.9671L14.5697 97.0664L6.17882 98.8154L6.10902 100.206L14.2825 102.786L14.2775 102.886L5.88864 104.595L5.82582 105.846L16.1344 103.576Z" fill="#0D224E"/>
<path d="M7.07634 85.335L6.88719 86.5534L16.9485 88.1154L17.1376 86.897L7.07634 85.335Z" fill="#0D224E"/>
<path d="M8.09273 82.7245L8.91843 79.6311L17.6991 81.9749L18.0171 80.7836L9.23641 78.4399L10.0621 75.3465L9.00536 75.0644L7.03598 82.4424L8.09273 82.7245Z" fill="#0D224E"/>
<path d="M19.9786 71.1211L20.5432 69.9805L14.2689 64.3669L14.3042 64.2956L22.5725 65.8815L23.1372 64.7409L15.2476 57.7284L14.6917 58.8512L21.1794 64.4374L21.1353 64.5265L12.7419 62.7899L12.1242 64.0374L18.5943 69.6592L18.5502 69.7483L10.1744 67.976L9.61851 69.0988L19.9786 71.1211Z" fill="#0D224E"/>
<path d="M24.3664 51.6669C21.6806 49.888 18.9628 50.3539 17.5243 52.5258C16.0857 54.6978 16.7171 57.3819 19.403 59.1609C22.0888 60.9398 24.8066 60.4739 26.2451 58.3019C27.6837 56.13 27.0523 53.4459 24.3664 51.6669ZM23.7076 52.6617C25.9127 54.1222 26.3048 56.1231 25.2835 57.665C24.2623 59.2069 22.2669 59.6266 20.0618 58.1661C17.8567 56.7056 17.4646 54.7046 18.4859 53.1627C19.5071 51.6208 21.5025 51.2012 23.7076 52.6617Z" fill="#0D224E"/>
<path d="M29.0629 52.9124L29.845 51.9593L26.7706 49.4361L28.1836 47.7145C28.2404 47.6453 28.294 47.5799 28.3437 47.5115L32.7846 48.3776L33.6929 47.2708L28.9814 46.3819C29.4625 45.0981 29.0287 43.9575 27.9834 43.0996C26.5922 41.9578 24.8887 41.949 23.3748 43.7937L21.1923 46.4531L29.0629 52.9124ZM25.9098 48.7297L22.8199 46.1939L24.1951 44.5183C25.2422 43.2424 26.2685 43.2614 27.2139 44.0373C28.1593 44.8132 28.332 45.7782 27.2975 47.0387L25.9098 48.7297Z" fill="#0D224E"/>
<path d="M34.1772 45.9307L35.0554 45.0652L32.7381 42.714L32.6395 40.8009L38.4829 41.6871L39.5452 40.6401L32.5775 39.6614L32.3981 33.3884L31.2508 34.5191L31.5389 41.3272L31.4539 41.411L27.9082 37.8134L27.0301 38.6789L34.1772 45.9307Z" fill="#0D224E"/>
<path d="M39.1675 30.455L40.098 29.7081C39.0938 28.5443 37.27 28.5355 35.7346 29.7678C34.2147 30.9876 33.73 32.8301 34.8004 34.1638C35.6593 35.234 36.9451 35.2475 38.4721 34.6084L39.6732 34.1034C40.6974 33.6639 41.6784 33.3611 42.3132 34.1521C43.0102 35.0206 42.6333 36.2666 41.5321 37.1503C40.5861 37.9096 39.4125 38.163 38.613 37.3257L37.6204 38.1223C38.759 39.3504 40.5232 39.388 42.2292 38.0188C44.0593 36.5501 44.2893 34.708 43.2562 33.4208C42.0612 31.9319 40.264 32.5838 39.2678 33.0264L38.2871 33.4565C37.5732 33.7744 36.3782 34.2235 35.6936 33.3705C35.0837 32.6105 35.3335 31.4921 36.3882 30.6457C37.3497 29.8739 38.4459 29.7464 39.1675 30.455Z" fill="#0D224E"/>
<path d="M50.6262 25.2856L46.8077 27.5795L47.3709 28.5171L51.1895 26.2232L50.6262 25.2856Z" fill="#0D224E"/>
<path d="M59.0324 25.1957L60.2306 24.7665L59.6102 16.3703L59.6851 16.3435L64.5366 23.2242L65.7348 22.795L64.9225 12.2707L63.743 12.6932L64.5361 21.2176L64.4425 21.2511L59.6055 14.1751L58.295 14.6445L59.0507 23.1824L58.957 23.2159L54.1575 16.1265L52.9781 16.549L59.0324 25.1957Z" fill="#0D224E"/>
<path d="M69.266 20.9291L69.616 17.8892L73.6272 16.9643L75.2731 19.5439L76.5327 19.2535L70.6018 10.1721L69.3616 10.458L68.0064 21.2195L69.266 20.9291ZM69.7481 16.7363L70.3049 11.8936L70.3824 11.8757L73.0036 15.9856L69.7481 16.7363Z" fill="#0D224E"/>
<path d="M75.988 9.5242L79.1654 9.13038L80.2833 18.1494L81.5069 17.9978L80.389 8.97872L83.5664 8.5849L83.4318 7.49945L75.8535 8.43876L75.988 9.5242Z" fill="#0D224E"/>
<path d="M94.2575 9.76741C93.8636 7.68232 92.1837 6.4623 90.1354 6.47812C87.5304 6.49823 85.6568 8.52128 85.6816 11.7428C85.7065 14.9643 87.6112 16.9581 90.2162 16.938C92.2644 16.9222 93.9253 15.6764 94.287 13.5855L93.0541 13.595C92.7667 15.0092 91.5595 15.7742 90.2073 15.7847C88.3579 15.7989 86.8952 14.3784 86.8748 11.7336C86.8544 9.08875 88.295 7.64577 90.1443 7.63149C91.4966 7.62105 92.7154 8.36734 93.0246 9.77693L94.2575 9.76741Z" fill="#0D224E"/>
<path d="M95.4538 16.0329L96.678 16.1799L97.2208 11.6583L102.611 12.3054L102.068 16.8269L103.292 16.9739L104.506 6.86465L103.282 6.7177L102.741 11.2195L97.3512 10.5724L97.8916 6.07062L96.6674 5.92366L95.4538 16.0329Z" fill="#0D224E"/>
<path d="M109.27 16.9698L110.449 17.3282L111.773 12.9708L116.968 14.5489L115.644 18.9062L116.824 19.2646L119.783 9.52245L118.604 9.16406L117.286 13.5024L112.091 11.9243L113.409 7.58599L112.229 7.2276L109.27 16.9698Z" fill="#0D224E"/>
<path d="M129.306 18.144C130.627 15.2057 129.728 12.5992 127.352 11.5309C124.976 10.4626 122.429 11.5198 121.108 14.4581C119.787 17.3964 120.687 20.003 123.063 21.0712C125.439 22.1395 127.985 21.0823 129.306 18.144ZM128.218 17.6547C127.134 20.067 125.222 20.7776 123.536 20.0192C121.849 19.2609 121.112 17.3597 122.196 14.9474C123.281 12.5351 125.192 11.8245 126.879 12.5829C128.566 13.3413 129.303 15.2424 128.218 17.6547Z" fill="#0D224E"/>
<path d="M130.505 23.4555L131.576 24.1427L137.848 18.5265L137.915 18.5694L135.426 26.6121L136.497 27.2993L144.338 20.2322L143.283 19.5558L137.015 25.387L136.931 25.3333L139.584 17.1829L138.412 16.4313L132.111 22.2411L132.027 22.1874L134.713 14.0585L133.659 13.3821L130.505 23.4555Z" fill="#0D224E"/>
<path d="M150.644 24.5171L149.68 23.7489L143.336 31.7128L144.3 32.481L150.644 24.5171Z" fill="#0D224E"/>
<path d="M152.048 26.3854L154.337 28.6245L147.981 35.1204L148.862 35.9827L155.218 29.4868L157.507 31.7259L158.271 30.9441L152.813 25.6036L152.048 26.3854Z" fill="#0D224E"/>
<path d="M156.715 42.8763L157.43 43.9296L165.406 41.2349L165.45 41.3008L159.997 47.7149L160.711 48.7682L170.701 45.357L169.997 44.3202L161.94 47.214L161.884 47.1317L167.53 40.683L166.749 39.5309L158.669 42.3918L158.614 42.3095L164.282 35.8937L163.579 34.8569L156.715 42.8763Z" fill="#0D224E"/>
<path d="M171.257 55.8563C174.122 54.3844 175.046 51.7862 173.855 49.4689C172.665 47.1516 170.015 46.3889 167.15 47.8608C164.284 49.3328 163.36 51.931 164.551 54.2483C165.741 56.5656 168.391 57.3283 171.257 55.8563ZM170.711 54.795C168.359 56.0035 166.422 55.3664 165.577 53.7213C164.732 52.0762 165.342 50.1306 167.695 48.9222C170.047 47.7137 171.984 48.3508 172.829 49.9959C173.674 51.641 173.064 53.5865 170.711 54.795Z" fill="#0D224E"/>
<path d="M168.154 59.9003L168.595 61.0514L172.309 59.6263L173.107 61.7057C173.139 61.7892 173.169 61.8681 173.204 61.9452L170.256 65.3773L170.769 66.714L173.871 63.0579C174.749 64.1108 175.955 64.2976 177.217 63.8131C178.897 63.1682 179.747 61.6918 178.892 59.4639L177.659 56.252L168.154 59.9003ZM173.348 59.2272L177.08 57.795L177.857 59.8187C178.448 61.3596 177.924 62.2423 176.782 62.6805C175.641 63.1188 174.716 62.7919 174.132 61.2695L173.348 59.2272Z" fill="#0D224E"/>
<path d="M171.487 67.2195L171.81 68.4095L174.996 67.5461L176.711 68.4L173.069 73.0545L173.459 74.494L177.734 68.9057L183.286 71.8309L182.865 70.2761L176.793 67.1827L176.762 67.0675L181.637 65.7463L181.315 64.5563L171.487 67.2195Z" fill="#0D224E"/>
<path d="M182.616 79.677L182.804 80.8553C184.312 80.5598 185.224 78.98 184.914 77.0357C184.608 75.1111 183.248 73.7771 181.559 74.0459C180.204 74.2616 179.555 75.3717 179.353 77.0148L179.197 78.3083C179.071 79.4157 178.848 80.4178 177.846 80.5772C176.746 80.7523 175.851 79.8074 175.629 78.413C175.438 77.2151 175.8 76.0701 176.923 75.7906L176.723 74.5337C175.092 74.9142 174.185 76.4278 174.529 78.5881C174.898 80.9055 176.384 82.0181 178.014 81.7587C179.899 81.4586 180.224 79.5745 180.333 78.4899L180.445 77.4249C180.523 76.6473 180.725 75.3868 181.805 75.2149C182.767 75.0617 183.615 75.8329 183.828 77.1684C184.022 78.386 183.589 79.4013 182.616 79.677Z" fill="#0D224E"/>
<path d="M181.41 92.1894L181.307 87.736L180.213 87.7614L180.316 92.2147L181.41 92.1894Z" fill="#0D224E"/>
<path d="M122 97L84.5 118.651V75.3494L122 97Z" fill="#4A86FF"/>
</svg>
